<mxfile host="app.diagrams.net" modified="2023-03-01T08:34:07.291Z" agent="5.0 (X11; Linux x86_64) AppleWebKit/537.36 (KHTML, like Gecko) Chrome/110.0.0.0 Safari/537.36" etag="OS5eh1N3MT3byF22V1t_" version="20.8.23" type="github">
  <diagram name="第 1 页" id="CpVOXI4tYz6ggOoA7YXH">
    <mxGraphModel dx="772" dy="463" grid="1" gridSize="10" guides="1" tooltips="1" connect="1" arrows="1" fold="1" page="1" pageScale="1" pageWidth="827" pageHeight="1169" math="0" shadow="0">
      <root>
        <mxCell id="0" />
        <mxCell id="1" parent="0" />
        <mxCell id="x1cKCTvtY_YfGjDLlmrA-5" style="edgeStyle=orthogonalEdgeStyle;rounded=0;orthogonalLoop=1;jettySize=auto;html=1;entryX=0;entryY=0.5;entryDx=0;entryDy=0;" edge="1" parent="1" source="x1cKCTvtY_YfGjDLlmrA-1" target="x1cKCTvtY_YfGjDLlmrA-3">
          <mxGeometry relative="1" as="geometry" />
        </mxCell>
        <mxCell id="x1cKCTvtY_YfGjDLlmrA-1" value="BN" style="rounded=1;whiteSpace=wrap;html=1;fillColor=#d5e8d4;strokeColor=#82b366;" vertex="1" parent="1">
          <mxGeometry x="354" y="610" width="120" height="60" as="geometry" />
        </mxCell>
        <mxCell id="x1cKCTvtY_YfGjDLlmrA-4" style="edgeStyle=orthogonalEdgeStyle;rounded=0;orthogonalLoop=1;jettySize=auto;html=1;entryX=0;entryY=0.5;entryDx=0;entryDy=0;" edge="1" parent="1" source="x1cKCTvtY_YfGjDLlmrA-2" target="x1cKCTvtY_YfGjDLlmrA-1">
          <mxGeometry relative="1" as="geometry" />
        </mxCell>
        <mxCell id="x1cKCTvtY_YfGjDLlmrA-2" value="Conv" style="rounded=1;whiteSpace=wrap;html=1;fillColor=#dae8fc;strokeColor=#6c8ebf;" vertex="1" parent="1">
          <mxGeometry x="150" y="610" width="120" height="60" as="geometry" />
        </mxCell>
        <mxCell id="x1cKCTvtY_YfGjDLlmrA-3" value="SiLU" style="rounded=1;whiteSpace=wrap;html=1;fillColor=#fff2cc;strokeColor=#d6b656;" vertex="1" parent="1">
          <mxGeometry x="560" y="610" width="120" height="60" as="geometry" />
        </mxCell>
        <mxCell id="x1cKCTvtY_YfGjDLlmrA-6" value="" style="endArrow=classic;html=1;rounded=0;entryX=0;entryY=0.5;entryDx=0;entryDy=0;" edge="1" parent="1" target="x1cKCTvtY_YfGjDLlmrA-2">
          <mxGeometry width="50" height="50" relative="1" as="geometry">
            <mxPoint x="50" y="640" as="sourcePoint" />
            <mxPoint x="-10" y="700" as="targetPoint" />
          </mxGeometry>
        </mxCell>
        <mxCell id="x1cKCTvtY_YfGjDLlmrA-7" value="" style="endArrow=classic;html=1;rounded=0;entryX=0;entryY=0.5;entryDx=0;entryDy=0;exitX=1;exitY=0.5;exitDx=0;exitDy=0;" edge="1" parent="1" source="x1cKCTvtY_YfGjDLlmrA-3">
          <mxGeometry width="50" height="50" relative="1" as="geometry">
            <mxPoint x="720" y="639.5" as="sourcePoint" />
            <mxPoint x="780" y="639.5" as="targetPoint" />
          </mxGeometry>
        </mxCell>
      </root>
    </mxGraphModel>
  </diagram>
</mxfile>
